<svg id="svg" version="1.1" xmlns="http://www.w3.org/2000/svg" xmlns:xlink="http://www.w3.org/1999/xlink" width="400" height="400" viewBox="0, 0, 400,400"><g id="svgg"><path id="path0" d="M0.000 200.000 L 0.000 400.000 200.000 400.000 L 400.000 400.000 400.000 200.000 L 400.000 0.000 200.000 0.000 L 0.000 0.000 0.000 200.000 M181.036 142.941 L 181.036 144.946 125.021 144.988 L 69.006 145.030 69.006 182.039 L 69.006 219.048 66.917 219.048 L 64.829 219.048 64.829 180.061 C 64.829 158.619,64.879 141.025,64.940 140.963 C 65.002 140.902,91.148 140.871,123.044 140.894 L 181.036 140.936 181.036 142.941 M333.130 142.982 L 333.177 145.029 295.076 145.029 L 256.976 145.029 256.976 143.052 C 256.976 141.965,257.026 141.025,257.088 140.963 C 257.149 140.902,274.273 140.870,295.141 140.894 L 333.083 140.936 333.130 142.982 M123.530 162.990 C 124.692 163.193,126.700 163.786,126.956 164.002 C 126.987 164.028,126.860 164.393,126.674 164.813 L 126.336 165.577 125.566 165.247 C 117.035 161.590,109.879 168.051,111.611 177.847 C 112.742 184.243,118.642 187.155,125.840 184.871 C 126.109 184.785,126.149 184.870,126.149 185.531 L 126.149 186.290 125.272 186.545 C 123.167 187.156,119.770 187.302,117.662 186.872 C 106.620 184.618,106.728 165.254,117.794 163.090 C 118.300 162.991,118.864 162.881,119.048 162.845 C 119.861 162.685,122.215 162.761,123.530 162.990 M192.020 162.982 C 193.569 163.259,195.489 163.875,195.489 164.096 C 195.489 164.609,194.966 165.446,194.695 165.369 C 194.534 165.322,193.726 165.079,192.899 164.827 C 188.068 163.358,183.983 164.944,183.672 168.409 C 183.431 171.091,184.574 172.185,189.592 174.078 C 194.892 176.077,196.074 177.284,196.074 180.702 C 196.074 185.593,192.068 187.831,184.888 186.950 C 182.294 186.632,181.548 186.328,181.484 185.566 C 181.398 184.523,181.491 184.430,182.324 184.729 C 187.358 186.537,192.974 185.352,194.143 182.236 C 195.247 179.293,193.663 177.367,188.610 175.506 C 183.731 173.709,182.187 172.334,181.866 169.497 C 181.338 164.829,185.913 161.894,192.020 162.982 M269.895 162.990 C 272.826 163.501,273.424 163.894,272.911 164.971 L 272.638 165.541 271.314 165.058 C 267.280 163.586,263.091 164.273,260.564 166.821 C 255.980 171.446,256.955 181.667,262.251 184.498 C 264.407 185.651,269.577 185.849,272.055 184.875 C 272.308 184.775,272.348 184.864,272.348 185.533 C 272.348 186.467,272.224 186.534,269.847 186.892 C 260.999 188.226,255.937 183.945,255.909 175.104 C 255.882 166.348,261.458 161.519,269.895 162.990 M132.999 168.338 L 132.999 173.601 139.847 173.601 L 146.695 173.601 146.739 168.379 L 146.784 163.158 147.619 163.158 L 148.454 163.158 148.497 174.979 L 148.540 186.800 147.620 186.800 L 146.700 186.800 146.700 181.036 L 146.700 175.272 139.850 175.272 L 132.999 175.272 132.999 181.036 L 132.999 186.800 132.164 186.800 L 131.328 186.800 131.328 174.937 L 131.328 163.074 132.164 163.074 L 132.999 163.074 132.999 168.338 M164.395 163.480 C 167.148 164.176,168.645 165.552,169.196 167.895 C 170.020 171.394,168.393 174.604,165.227 175.729 C 164.775 175.889,164.436 176.096,164.473 176.189 C 164.509 176.282,165.939 178.688,167.650 181.537 L 170.762 186.717 169.904 186.768 C 169.432 186.796,168.955 186.785,168.845 186.742 C 168.734 186.700,167.302 184.402,165.663 181.637 L 162.681 176.608 159.787 176.608 L 156.892 176.608 156.892 181.704 L 156.892 186.800 155.973 186.800 L 155.054 186.800 155.054 175.049 C 155.054 168.585,155.111 163.239,155.180 163.168 C 155.418 162.922,163.235 163.187,164.395 163.480 M176.441 174.937 L 176.441 186.800 175.606 186.800 L 174.770 186.800 174.770 174.937 L 174.770 163.074 175.606 163.074 L 176.441 163.074 176.441 174.937 M218.964 163.478 C 222.712 164.505,224.498 167.267,223.901 171.115 C 223.268 175.198,220.581 176.882,214.411 177.064 L 211.362 177.154 211.362 181.977 L 211.362 186.800 210.526 186.800 L 209.691 186.800 209.691 175.049 C 209.691 168.585,209.747 163.239,209.816 163.168 C 210.061 162.916,217.879 163.181,218.964 163.478 M238.391 163.475 C 242.634 164.550,244.529 168.480,242.773 172.563 C 242.179 173.944,239.736 175.930,238.620 175.938 C 238.285 175.941,238.325 176.015,241.676 181.637 L 244.754 186.800 243.721 186.800 L 242.688 186.800 239.682 181.708 L 236.675 176.616 233.709 176.612 L 230.744 176.608 230.744 181.704 L 230.744 186.800 229.908 186.800 L 229.073 186.800 229.073 174.917 L 229.073 163.034 233.208 163.122 C 236.186 163.185,237.637 163.284,238.391 163.475 M250.419 174.979 L 250.462 186.800 249.625 186.800 L 248.789 186.800 248.789 174.928 L 248.789 163.056 249.582 163.107 L 250.376 163.158 250.419 174.979 M290.560 163.910 L 290.560 164.745 284.962 164.745 L 279.365 164.745 279.365 169.173 L 279.365 173.601 284.628 173.601 L 289.891 173.601 289.891 174.353 L 289.891 175.104 284.628 175.104 L 279.365 175.104 279.365 180.201 L 279.365 185.297 284.962 185.297 L 290.560 185.297 290.560 186.048 L 290.560 186.800 284.043 186.800 L 277.527 186.800 277.527 175.049 C 277.527 168.585,277.577 163.247,277.639 163.186 C 277.700 163.124,280.632 163.074,284.155 163.074 L 290.560 163.074 290.560 163.910 M156.892 169.951 L 156.892 175.156 159.942 175.057 C 165.432 174.879,167.167 173.767,167.536 170.186 C 167.934 166.333,165.704 164.753,159.858 164.748 L 156.892 164.745 156.892 169.951 M211.362 170.183 L 211.362 175.651 214.244 175.565 C 220.076 175.390,221.875 174.197,222.028 170.405 C 222.199 166.146,220.576 164.893,214.745 164.781 L 211.362 164.715 211.362 170.183 M230.783 169.883 L 230.827 175.021 233.844 175.001 C 239.605 174.962,241.353 173.741,241.353 169.758 C 241.353 165.802,239.761 164.745,233.797 164.745 L 230.739 164.745 230.783 169.883 M335.130 220.008 L 335.088 259.064 277.026 259.064 L 218.964 259.064 218.964 257.059 L 218.964 255.054 274.979 255.012 L 330.994 254.970 330.994 217.961 L 330.994 180.952 333.083 180.952 L 335.172 180.952 335.130 220.008 M224.896 200.973 C 226.347 201.312,228.837 202.090,229.215 202.324 C 229.432 202.458,228.658 204.678,228.395 204.678 C 228.330 204.678,227.764 204.485,227.137 204.249 C 218.175 200.876,210.462 203.550,210.482 210.025 C 210.494 214.049,212.186 215.578,219.632 218.295 C 228.192 221.417,230.678 224.023,230.365 229.542 C 230.108 234.073,227.244 237.237,222.139 238.630 C 219.365 239.388,212.175 239.085,208.605 238.061 L 207.268 237.678 207.219 236.278 C 207.174 234.987,207.194 234.889,207.470 235.008 C 210.592 236.347,218.315 237.018,221.220 236.201 C 225.483 235.003,227.853 232.031,227.513 228.307 C 227.192 224.803,225.019 222.977,218.382 220.637 C 210.664 217.914,208.260 215.804,207.681 211.240 C 207.037 206.162,210.289 202.073,216.040 200.729 C 217.472 200.395,223.076 200.549,224.896 200.973 M283.035 200.759 C 284.606 201.014,287.974 202.032,288.457 202.399 C 288.689 202.575,288.110 204.343,287.679 204.774 C 287.625 204.829,286.900 204.601,286.068 204.268 C 278.176 201.111,269.803 203.422,266.186 209.756 C 263.017 215.304,263.064 224.712,266.288 230.235 C 269.611 235.929,277.429 238.063,286.216 235.676 C 286.721 235.538,287.191 235.425,287.260 235.424 C 287.329 235.423,287.385 235.945,287.385 236.585 L 287.385 237.748 286.341 238.070 C 283.206 239.037,276.879 239.361,273.854 238.709 C 265.517 236.913,260.979 230.236,260.972 219.757 C 260.964 206.342,269.919 198.632,283.035 200.759 M119.180 201.211 C 119.226 201.326,122.174 208.638,125.731 217.460 C 129.288 226.282,132.261 233.613,132.338 233.751 C 132.509 234.059,131.659 236.091,139.376 216.920 L 145.781 201.008 147.828 201.005 L 149.875 201.003 149.875 219.799 L 149.875 238.596 148.454 238.596 L 147.034 238.596 147.037 224.353 C 147.039 216.518,147.115 208.762,147.207 207.117 C 147.298 205.472,147.347 204.100,147.316 204.069 C 147.285 204.038,144.108 211.795,140.255 221.307 L 133.250 238.601 132.359 238.557 L 131.468 238.513 124.506 221.264 C 120.677 211.776,117.506 204.013,117.460 204.012 C 117.414 204.011,117.424 205.119,117.483 206.474 C 117.541 207.830,117.597 215.612,117.608 223.768 L 117.627 238.596 116.291 238.596 L 114.954 238.596 114.954 219.799 L 114.954 201.003 117.025 201.003 C 118.525 201.003,119.119 201.060,119.180 201.211 M168.421 214.126 C 168.421 228.837,168.414 228.733,169.594 231.161 C 173.320 238.830,186.622 238.636,190.048 230.864 C 190.974 228.764,190.977 228.701,190.977 214.295 L 190.977 201.003 192.408 201.003 L 193.838 201.003 193.773 214.411 C 193.715 226.460,193.678 227.946,193.415 229.063 C 191.817 235.852,186.399 239.467,178.460 239.042 C 171.930 238.693,167.716 235.473,166.119 229.611 L 165.676 227.987 165.619 214.495 L 165.563 201.003 166.992 201.003 L 168.421 201.003 168.421 214.126 M246.617 219.799 L 246.617 238.596 245.280 238.596 L 243.943 238.596 243.943 219.799 L 243.943 201.003 245.280 201.003 L 246.617 201.003 246.617 219.799 M142.988 257.018 L 142.941 259.064 104.929 259.064 L 66.917 259.064 66.870 257.018 L 66.823 254.971 104.929 254.971 L 143.035 254.971 142.988 257.018 " stroke="none" fill="#040404" fill-rule="evenodd"></path><path id="path1" d="M65.107 141.130 C 65.046 141.192,64.996 158.711,64.996 180.061 L 64.996 218.881 66.917 218.881 L 68.839 218.881 68.839 181.871 L 68.839 144.862 124.901 144.862 L 180.963 144.862 180.916 142.982 L 180.869 141.103 123.044 141.061 C 91.240 141.038,65.169 141.069,65.107 141.130 M257.143 142.940 L 257.143 144.862 295.076 144.862 L 333.010 144.862 332.963 142.982 L 332.916 141.103 295.029 141.061 L 257.143 141.018 257.143 142.940 M331.161 218.129 L 331.161 255.138 275.099 255.138 L 219.037 255.138 219.084 257.018 L 219.131 258.897 277.026 258.897 L 334.921 258.897 334.963 220.008 L 335.005 181.119 333.083 181.119 L 331.161 181.119 331.161 218.129 M67.037 257.018 L 67.084 258.897 104.971 258.939 L 142.857 258.982 142.857 257.060 L 142.857 255.138 104.924 255.138 L 66.990 255.138 67.037 257.018 " stroke="none" fill="#b324fb" fill-rule="evenodd"></path><path id="path2" d="M117.521 163.238 C 112.367 164.589,109.682 168.634,109.698 175.021 C 109.720 183.878,114.924 188.274,123.662 186.815 C 125.806 186.457,125.982 186.365,125.982 185.605 C 125.982 184.978,125.951 184.932,125.606 185.029 C 117.942 187.191,112.357 184.091,111.431 177.163 C 110.122 167.365,117.195 161.628,126.024 165.327 C 126.254 165.423,126.372 165.320,126.567 164.852 C 126.915 164.019,126.911 164.009,126.023 163.691 C 123.682 162.852,119.786 162.644,117.521 163.238 M186.432 163.220 C 183.352 164.237,181.819 166.319,181.989 169.254 C 182.162 172.246,183.547 173.551,188.470 175.361 C 193.756 177.305,195.162 178.951,194.226 182.102 C 193.228 185.463,187.153 186.748,181.913 184.706 C 181.660 184.608,181.621 184.697,181.621 185.366 C 181.621 186.284,181.706 186.333,183.934 186.723 C 191.274 188.004,196.054 185.632,196.067 180.702 C 196.075 177.450,194.652 176.027,189.474 174.109 C 184.639 172.319,183.637 171.415,183.629 168.830 C 183.617 164.740,188.505 162.982,194.042 165.086 C 194.505 165.262,194.905 165.385,194.930 165.359 C 194.956 165.334,195.092 165.036,195.234 164.698 L 195.491 164.082 194.884 163.829 C 192.762 162.942,188.256 162.617,186.432 163.220 M264.578 163.008 C 257.757 164.660,254.358 171.437,256.400 179.317 C 258.041 185.647,264.358 188.580,271.721 186.429 C 272.301 186.260,272.753 184.943,272.222 184.968 C 272.153 184.972,271.608 185.084,271.011 185.219 C 262.794 187.074,257.644 183.145,257.644 175.021 C 257.644 166.900,263.651 162.254,270.844 164.813 C 271.533 165.058,272.212 165.298,272.354 165.346 C 272.631 165.441,273.267 164.348,273.096 164.071 C 272.652 163.353,266.383 162.571,264.578 163.008 M131.328 175.021 L 131.328 186.800 132.164 186.800 L 132.999 186.800 132.999 180.952 L 132.999 175.104 139.933 175.104 L 146.867 175.104 146.867 180.952 L 146.867 186.800 147.619 186.800 L 148.371 186.800 148.371 175.021 L 148.371 163.241 147.619 163.241 L 146.867 163.241 146.867 168.505 L 146.867 173.768 139.933 173.768 L 132.999 173.768 132.999 168.505 L 132.999 163.241 132.164 163.241 L 131.328 163.241 131.328 175.021 M155.221 175.021 L 155.221 186.800 155.973 186.800 L 156.725 186.800 156.725 181.621 L 156.725 176.441 159.697 176.441 L 162.669 176.441 165.742 181.621 L 168.816 186.800 169.704 186.800 C 170.823 186.800,171.079 187.421,167.502 181.449 C 165.802 178.611,164.411 176.227,164.411 176.151 C 164.411 176.076,164.902 175.800,165.501 175.539 C 168.125 174.396,169.173 172.723,169.173 169.674 C 169.173 164.713,166.843 163.241,158.988 163.241 L 155.221 163.241 155.221 175.021 M174.770 175.021 L 174.770 186.800 175.606 186.800 L 176.441 186.800 176.441 175.021 L 176.441 163.241 175.606 163.241 L 174.770 163.241 174.770 175.021 M209.858 175.006 L 209.858 186.800 210.610 186.800 L 211.362 186.800 211.362 181.889 L 211.362 176.977 214.662 176.903 C 221.122 176.757,223.893 174.662,223.893 169.925 C 223.893 165.004,221.535 163.394,214.160 163.279 L 209.858 163.212 209.858 175.006 M229.073 175.005 L 229.073 186.800 229.908 186.800 L 230.744 186.800 230.744 181.621 L 230.744 176.441 233.709 176.446 L 236.675 176.451 239.683 181.561 C 241.337 184.372,242.775 186.705,242.878 186.746 C 242.982 186.787,243.415 186.797,243.842 186.769 L 244.616 186.717 241.439 181.390 C 237.706 175.130,238.063 176.058,239.223 175.631 C 242.009 174.605,243.456 172.238,243.224 169.089 C 242.897 164.658,240.780 163.399,233.459 163.280 L 229.073 163.209 229.073 175.005 M248.789 175.021 L 248.789 186.800 249.541 186.800 L 250.292 186.800 250.292 175.021 L 250.292 163.241 249.541 163.241 L 248.789 163.241 248.789 175.021 M277.694 175.021 L 277.694 186.800 284.127 186.800 L 290.560 186.800 290.560 186.048 L 290.560 185.297 284.879 185.297 L 279.198 185.297 279.198 180.201 L 279.198 175.104 284.545 175.104 L 289.891 175.104 289.891 174.353 L 289.891 173.601 284.542 173.601 L 279.193 173.601 279.237 169.131 L 279.282 164.662 284.921 164.618 L 290.560 164.574 290.560 163.908 L 290.560 163.241 284.127 163.241 L 277.694 163.241 277.694 175.021 M164.186 164.976 C 166.404 165.681,167.419 166.970,167.551 169.251 C 167.801 173.576,165.719 175.104,159.574 175.104 L 156.725 175.104 156.725 169.822 L 156.725 164.539 160.025 164.621 C 162.432 164.680,163.558 164.776,164.186 164.976 M217.544 164.755 C 221.225 165.347,222.974 168.167,221.966 171.889 C 221.238 174.578,219.476 175.445,214.495 175.566 L 211.362 175.642 211.362 170.110 L 211.362 164.578 213.910 164.579 C 215.311 164.580,216.947 164.659,217.544 164.755 M237.314 164.818 C 240.332 165.395,241.527 166.824,241.514 169.841 C 241.498 173.748,239.427 175.104,233.478 175.104 L 230.744 175.104 230.744 169.841 L 230.744 164.578 233.402 164.578 C 235.018 164.578,236.552 164.672,237.314 164.818 M216.792 200.676 C 210.985 201.587,207.421 205.529,207.735 210.693 C 208.024 215.448,210.441 217.718,218.129 220.457 C 225.285 223.007,227.356 224.783,227.535 228.519 C 227.709 232.170,225.748 234.825,221.998 236.018 C 218.774 237.043,212.021 236.718,208.268 235.355 L 207.185 234.962 207.185 236.278 C 207.185 237.002,207.221 237.594,207.266 237.594 C 207.310 237.594,207.996 237.782,208.789 238.012 C 213.235 239.300,220.595 239.281,223.893 237.973 C 228.113 236.298,230.291 233.188,230.302 228.822 C 230.315 223.700,227.956 221.443,219.215 218.213 C 211.987 215.542,210.443 214.100,210.443 210.022 C 210.443 203.524,217.338 200.942,226.543 203.993 L 228.441 204.622 228.757 203.883 C 229.413 202.352,229.480 202.460,227.454 201.786 C 224.295 200.737,219.552 200.243,216.792 200.676 M275.486 200.749 C 266.417 202.234,260.986 209.370,260.986 219.799 C 260.986 231.050,266.737 238.272,276.196 238.898 C 279.523 239.118,283.921 238.733,286.341 238.010 L 287.218 237.748 287.218 236.669 C 287.218 235.452,287.250 235.472,285.881 235.839 C 280.517 237.277,273.975 236.775,270.490 234.658 C 261.433 229.156,261.409 210.972,270.451 205.122 C 274.659 202.400,281.479 202.071,286.498 204.347 C 287.107 204.623,287.617 204.829,287.631 204.805 C 287.919 204.326,288.549 202.632,288.481 202.522 C 287.712 201.277,279.282 200.127,275.486 200.749 M115.121 219.799 L 115.121 238.596 116.299 238.596 L 117.477 238.596 117.427 221.226 C 117.391 208.700,117.427 203.911,117.559 204.058 C 117.659 204.169,120.854 211.986,124.660 221.428 L 131.579 238.595 132.346 238.596 C 132.980 238.596,133.142 238.532,133.280 238.221 C 133.373 238.014,136.554 230.191,140.351 220.836 C 144.147 211.482,147.309 203.888,147.376 203.961 C 147.443 204.034,147.437 204.770,147.362 205.597 C 147.287 206.424,147.220 214.188,147.213 222.849 L 147.201 238.596 148.454 238.596 L 149.708 238.596 149.708 219.794 L 149.708 200.992 147.775 201.039 L 145.842 201.086 139.224 217.544 C 135.584 226.596,132.577 234.037,132.543 234.080 C 132.418 234.236,132.095 233.457,125.618 217.348 L 119.048 201.010 117.084 201.006 L 115.121 201.003 115.121 219.799 M165.791 214.745 C 165.855 230.170,165.789 229.316,167.140 232.162 C 171.330 240.985,186.727 241.524,191.792 233.024 C 193.598 229.994,193.651 229.455,193.651 214.013 L 193.651 201.003 192.404 201.003 L 191.157 201.003 191.105 214.578 C 191.046 229.690,191.107 228.857,189.869 231.391 C 186.352 238.594,173.235 238.643,169.618 231.467 C 168.297 228.847,168.356 229.603,168.294 214.495 L 168.239 201.003 166.987 201.003 L 165.735 201.003 165.791 214.745 M244.110 219.799 L 244.110 238.596 245.363 238.596 L 246.617 238.596 246.617 219.799 L 246.617 201.003 245.363 201.003 L 244.110 201.003 244.110 219.799 " stroke="none" fill="#f9f9f9" fill-rule="evenodd"></path><path id="path3" d="M120.175 162.862 C 120.520 162.898,121.084 162.898,121.429 162.862 C 121.773 162.826,121.491 162.796,120.802 162.796 C 120.113 162.796,119.831 162.826,120.175 162.862 M188.760 162.861 C 189.056 162.898,189.583 162.898,189.929 162.862 C 190.276 162.826,190.033 162.796,189.390 162.795 C 188.747 162.794,188.463 162.824,188.760 162.861 M266.541 162.862 C 266.886 162.898,267.450 162.898,267.794 162.862 C 268.139 162.826,267.857 162.796,267.168 162.796 C 266.479 162.796,266.197 162.826,266.541 162.862 M148.450 175.021 C 148.450 181.546,148.471 184.239,148.496 181.006 C 148.522 177.774,148.522 172.435,148.496 169.143 C 148.471 165.851,148.450 168.496,148.450 175.021 M155.133 175.021 C 155.133 181.546,155.154 184.239,155.180 181.006 C 155.205 177.774,155.205 172.435,155.180 169.143 C 155.154 165.851,155.133 168.496,155.133 175.021 M209.770 175.021 C 209.770 181.546,209.791 184.239,209.816 181.006 C 209.841 177.774,209.841 172.435,209.816 169.143 C 209.791 165.851,209.770 168.496,209.770 175.021 M250.372 175.021 C 250.372 181.546,250.392 184.239,250.418 181.006 C 250.443 177.774,250.443 172.435,250.418 169.143 C 250.392 165.851,250.372 168.496,250.372 175.021 M279.273 164.790 C 279.229 164.906,279.214 166.955,279.240 169.343 L 279.287 173.684 279.326 169.217 L 279.365 164.750 285.004 164.703 L 290.643 164.657 284.999 164.618 C 280.569 164.587,279.337 164.624,279.273 164.790 M169.299 169.674 C 169.300 170.042,169.335 170.172,169.375 169.965 C 169.415 169.757,169.413 169.456,169.371 169.296 C 169.329 169.137,169.297 169.307,169.299 169.674 M136.477 173.726 C 138.436 173.753,141.594 173.753,143.495 173.726 C 145.396 173.699,143.793 173.677,139.933 173.677 C 136.074 173.677,134.518 173.699,136.477 173.726 M279.272 180.201 C 279.272 183.049,279.295 184.238,279.323 182.843 C 279.351 181.447,279.351 179.116,279.323 177.663 C 279.295 176.210,279.272 177.352,279.272 180.201 M212.329 177.066 C 212.907 177.099,213.809 177.099,214.334 177.066 C 214.859 177.033,214.386 177.006,213.283 177.006 C 212.180 177.006,211.751 177.034,212.329 177.066 M332.129 181.076 C 332.706 181.109,333.609 181.109,334.134 181.076 C 334.658 181.043,334.185 181.016,333.083 181.016 C 331.980 181.016,331.551 181.044,332.129 181.076 M126.029 185.547 C 126.031 186.007,126.063 186.175,126.102 185.921 C 126.140 185.667,126.139 185.291,126.099 185.085 C 126.060 184.880,126.028 185.088,126.029 185.547 M119.340 187.083 C 119.501 187.125,119.764 187.125,119.925 187.083 C 120.086 187.041,119.954 187.006,119.632 187.006 C 119.311 187.006,119.179 187.041,119.340 187.083 M120.760 187.085 C 120.967 187.125,121.305 187.125,121.512 187.085 C 121.719 187.046,121.550 187.013,121.136 187.013 C 120.723 187.013,120.553 187.046,120.760 187.085 M186.844 187.087 C 187.098 187.126,187.474 187.125,187.680 187.085 C 187.885 187.045,187.678 187.014,187.218 187.015 C 186.759 187.016,186.590 187.049,186.844 187.087 M188.513 187.083 C 188.674 187.125,188.937 187.125,189.098 187.083 C 189.259 187.041,189.127 187.006,188.805 187.006 C 188.484 187.006,188.352 187.041,188.513 187.083 M266.959 187.085 C 267.166 187.125,267.504 187.125,267.711 187.085 C 267.918 187.046,267.749 187.013,267.335 187.013 C 266.921 187.013,266.752 187.046,266.959 187.085 M115.035 219.799 C 115.035 230.184,115.055 234.407,115.079 229.185 C 115.104 223.963,115.104 215.467,115.079 210.305 C 115.055 205.143,115.035 209.415,115.035 219.799 M149.788 219.799 C 149.788 230.184,149.808 234.407,149.833 229.185 C 149.857 223.963,149.857 215.467,149.833 210.305 C 149.808 205.143,149.788 209.415,149.788 219.799 M165.660 213.283 C 165.660 220.084,165.681 222.841,165.706 219.411 C 165.731 215.981,165.731 210.417,165.706 207.047 C 165.681 203.677,165.660 206.483,165.660 213.283 M244.024 219.799 C 244.024 230.184,244.044 234.407,244.068 229.185 C 244.093 223.963,244.093 215.467,244.068 210.305 C 244.044 205.143,244.024 209.415,244.024 219.799 M218.922 202.795 C 219.267 202.831,219.831 202.831,220.175 202.795 C 220.520 202.759,220.238 202.730,219.549 202.730 C 218.860 202.730,218.578 202.759,218.922 202.795 M268.246 206.892 L 267.586 207.602 268.296 206.942 C 268.956 206.328,269.083 206.182,268.956 206.182 C 268.929 206.182,268.609 206.502,268.246 206.892 M65.963 219.004 C 66.541 219.037,67.443 219.037,67.968 219.004 C 68.493 218.971,68.020 218.944,66.917 218.944 C 65.815 218.945,65.385 218.972,65.963 219.004 M225.470 233.960 L 224.979 234.503 225.522 234.012 C 226.028 233.555,226.142 233.417,226.013 233.417 C 225.984 233.417,225.740 233.661,225.470 233.960 M178.404 239.049 C 178.611 239.088,178.949 239.088,179.156 239.049 C 179.363 239.009,179.194 238.976,178.780 238.976 C 178.367 238.976,178.198 239.009,178.404 239.049 M179.908 239.049 C 180.115 239.088,180.453 239.088,180.660 239.049 C 180.867 239.009,180.698 238.976,180.284 238.976 C 179.871 238.976,179.701 239.009,179.908 239.049 M215.998 239.052 C 216.297 239.089,216.786 239.089,217.084 239.052 C 217.383 239.014,217.139 238.984,216.541 238.984 C 215.944 238.984,215.700 239.014,215.998 239.052 M218.172 239.049 C 218.380 239.089,218.681 239.087,218.841 239.045 C 219.000 239.004,218.830 238.971,218.463 238.973 C 218.095 238.975,217.965 239.009,218.172 239.049 M276.817 239.049 C 277.024 239.088,277.362 239.088,277.569 239.049 C 277.776 239.009,277.607 238.976,277.193 238.976 C 276.779 238.976,276.610 239.009,276.817 239.049 M278.571 239.050 C 278.824 239.089,279.238 239.089,279.490 239.050 C 279.743 239.012,279.536 238.981,279.031 238.981 C 278.525 238.981,278.319 239.012,278.571 239.050 " stroke="none" fill="#747474" fill-rule="evenodd"></path><path id="path4" d="M64.906 141.061 C 64.862 141.176,64.846 158.789,64.870 180.201 L 64.913 219.131 64.954 180.075 L 64.996 141.019 122.974 141.019 L 180.952 141.019 180.952 142.941 L 180.952 144.862 124.896 144.862 L 68.839 144.862 68.880 181.997 L 68.922 219.131 68.964 182.080 L 69.007 145.030 125.021 144.988 L 181.036 144.946 181.036 142.941 L 181.036 140.936 123.011 140.894 C 76.678 140.860,64.970 140.894,64.906 141.061 M257.088 140.963 C 257.026 141.025,256.976 141.965,256.976 143.052 L 256.976 145.029 295.076 145.029 L 333.177 145.029 333.130 142.982 L 333.083 140.936 295.141 140.894 C 274.273 140.870,257.149 140.902,257.088 140.963 M332.999 142.941 L 332.999 144.862 295.071 144.862 L 257.143 144.862 257.143 142.941 L 257.143 141.019 295.071 141.019 L 332.999 141.019 332.999 142.941 M131.704 163.194 C 131.957 163.232,132.371 163.232,132.623 163.194 C 132.876 163.156,132.669 163.124,132.164 163.124 C 131.658 163.124,131.452 163.156,131.704 163.194 M146.776 163.285 C 146.731 163.401,146.716 165.788,146.742 168.590 L 146.789 173.684 146.828 168.472 L 146.867 163.260 147.661 163.197 L 148.454 163.135 147.656 163.104 C 147.143 163.085,146.828 163.150,146.776 163.285 M156.943 163.199 C 157.936 163.229,159.515 163.229,160.452 163.199 C 161.389 163.169,160.576 163.145,158.647 163.145 C 156.717 163.145,155.950 163.170,156.943 163.199 M175.146 163.194 C 175.399 163.232,175.812 163.232,176.065 163.194 C 176.318 163.156,176.111 163.124,175.606 163.124 C 175.100 163.124,174.893 163.156,175.146 163.194 M211.580 163.199 C 212.573 163.229,214.152 163.229,215.088 163.199 C 216.025 163.169,215.213 163.145,213.283 163.145 C 211.353 163.145,210.587 163.170,211.580 163.199 M230.785 163.199 C 231.773 163.229,233.390 163.229,234.378 163.199 C 235.365 163.169,234.557 163.145,232.581 163.145 C 230.606 163.145,229.797 163.169,230.785 163.199 M249.167 163.194 C 249.421 163.233,249.797 163.232,250.002 163.192 C 250.208 163.152,250.000 163.121,249.541 163.122 C 249.081 163.123,248.913 163.156,249.167 163.194 M277.604 163.283 C 277.560 163.398,277.544 168.755,277.569 175.188 L 277.613 186.884 277.654 175.065 L 277.694 163.245 284.169 163.200 L 290.643 163.154 284.164 163.114 C 279.104 163.083,277.666 163.120,277.604 163.283 M156.801 164.789 C 156.756 164.905,156.741 167.292,156.767 170.094 L 156.814 175.188 156.853 169.971 L 156.892 164.754 159.440 164.703 L 161.988 164.652 159.435 164.615 C 157.508 164.587,156.862 164.630,156.801 164.789 M212.665 164.703 C 213.427 164.734,214.630 164.733,215.338 164.702 C 216.046 164.671,215.422 164.646,213.952 164.646 C 212.481 164.646,211.902 164.672,212.665 164.703 M232.122 164.702 C 232.834 164.734,234.000 164.734,234.712 164.702 C 235.424 164.671,234.841 164.645,233.417 164.645 C 231.992 164.645,231.410 164.671,232.122 164.702 M241.482 169.758 C 241.482 170.171,241.515 170.340,241.555 170.134 C 241.595 169.927,241.595 169.589,241.555 169.382 C 241.515 169.175,241.482 169.344,241.482 169.758 M243.314 169.591 C 243.314 169.912,243.348 170.044,243.390 169.883 C 243.432 169.722,243.432 169.459,243.390 169.298 C 243.348 169.137,243.314 169.269,243.314 169.591 M222.103 170.008 C 222.104 170.468,222.137 170.636,222.175 170.382 C 222.213 170.128,222.212 169.752,222.173 169.547 C 222.133 169.341,222.102 169.549,222.103 170.008 M223.939 169.925 C 223.939 170.338,223.971 170.508,224.011 170.301 C 224.051 170.094,224.051 169.756,224.011 169.549 C 223.971 169.342,223.939 169.511,223.939 169.925 M109.496 174.937 C 109.496 175.627,109.526 175.909,109.562 175.564 C 109.598 175.219,109.598 174.655,109.562 174.311 C 109.526 173.966,109.496 174.248,109.496 174.937 M111.334 174.937 C 111.334 175.627,111.364 175.909,111.400 175.564 C 111.436 175.219,111.436 174.655,111.400 174.311 C 111.364 173.966,111.334 174.248,111.334 174.937 M139.847 175.229 L 146.696 175.275 146.743 181.038 L 146.790 186.800 146.787 180.994 L 146.784 175.188 139.891 175.185 L 132.999 175.182 139.847 175.229 M156.801 176.652 C 156.756 176.768,156.741 179.117,156.767 181.873 L 156.814 186.884 156.853 181.750 L 156.892 176.616 159.774 176.566 L 162.657 176.516 159.769 176.479 C 157.572 176.450,156.862 176.491,156.801 176.652 M232.114 176.565 C 232.913 176.596,234.266 176.596,235.121 176.566 C 235.976 176.535,235.322 176.510,233.668 176.510 C 232.013 176.510,231.314 176.535,232.114 176.565 M215.499 177.061 C 215.707 177.100,216.008 177.099,216.167 177.057 C 216.327 177.015,216.157 176.983,215.789 176.984 C 215.422 176.986,215.291 177.021,215.499 177.061 M330.994 217.961 L 330.994 254.970 274.979 255.012 L 218.964 255.054 218.964 257.059 L 218.964 259.064 277.026 259.064 L 335.088 259.064 335.088 220.008 L 335.089 180.952 335.046 219.967 L 335.003 258.981 277.026 258.981 L 219.048 258.981 219.048 257.059 L 219.048 255.138 275.104 255.138 L 331.161 255.138 331.161 218.045 C 331.161 197.644,331.124 180.952,331.078 180.952 C 331.032 180.952,330.994 197.606,330.994 217.961 M112.281 183.845 C 112.281 183.874,112.525 184.118,112.824 184.388 L 113.367 184.879 112.876 184.336 C 112.419 183.830,112.281 183.716,112.281 183.845 M181.565 184.573 C 181.412 184.725,181.424 186.094,181.579 186.190 C 181.648 186.232,181.704 185.861,181.704 185.364 C 181.704 184.868,181.698 184.461,181.690 184.461 C 181.683 184.461,181.626 184.511,181.565 184.573 M119.674 185.579 C 119.835 185.621,120.098 185.621,120.259 185.579 C 120.420 185.537,120.288 185.502,119.967 185.502 C 119.645 185.502,119.513 185.537,119.674 185.579 M121.096 185.582 C 121.304 185.622,121.605 185.620,121.765 185.578 C 121.924 185.537,121.754 185.504,121.387 185.506 C 121.019 185.508,120.889 185.542,121.096 185.582 M186.926 185.582 C 187.132 185.621,187.471 185.621,187.678 185.582 C 187.884 185.542,187.715 185.509,187.302 185.509 C 186.888 185.509,186.719 185.542,186.926 185.582 M266.040 185.579 C 266.201 185.621,266.464 185.621,266.625 185.579 C 266.786 185.537,266.654 185.502,266.332 185.502 C 266.011 185.502,265.879 185.537,266.040 185.579 M267.462 185.582 C 267.670 185.622,267.971 185.620,268.131 185.578 C 268.290 185.537,268.120 185.504,267.753 185.506 C 267.385 185.508,267.254 185.542,267.462 185.582 M168.333 213.701 C 168.333 220.731,168.354 223.607,168.379 220.092 C 168.404 216.577,168.404 210.825,168.379 207.310 C 168.354 203.795,168.333 206.671,168.333 213.701 M191.057 213.868 C 191.057 220.990,191.078 223.904,191.103 220.343 C 191.128 216.782,191.128 210.954,191.103 207.393 C 191.078 203.832,191.057 206.746,191.057 213.868 M193.730 213.617 C 193.730 220.602,193.751 223.434,193.776 219.912 C 193.801 216.391,193.801 210.676,193.776 207.214 C 193.751 203.752,193.730 206.633,193.730 213.617 M117.540 223.475 C 117.540 231.838,117.561 235.235,117.586 231.023 C 117.610 226.812,117.610 219.970,117.586 215.819 C 117.561 211.667,117.540 215.113,117.540 223.475 M147.114 223.810 C 147.114 231.988,147.135 235.310,147.160 231.190 C 147.184 227.071,147.184 220.379,147.160 216.320 C 147.135 212.260,147.114 215.631,147.114 223.810 M207.558 210.025 C 207.558 210.347,207.592 210.478,207.634 210.317 C 207.676 210.157,207.676 209.893,207.634 209.733 C 207.592 209.572,207.558 209.703,207.558 210.025 M165.619 226.065 C 165.619 226.387,165.654 226.518,165.696 226.358 C 165.738 226.197,165.738 225.934,165.696 225.773 C 165.654 225.612,165.619 225.744,165.619 226.065 M268.170 232.832 C 268.482 233.154,268.775 233.417,268.821 233.417 C 268.867 233.417,268.649 233.154,268.338 232.832 C 268.026 232.510,267.733 232.247,267.687 232.247 C 267.641 232.247,267.859 232.510,268.170 232.832 M190.048 235.297 L 189.557 235.840 190.100 235.349 C 190.606 234.891,190.720 234.754,190.591 234.754 C 190.562 234.754,190.318 234.998,190.048 235.297 M287.274 236.591 C 287.274 237.281,287.304 237.563,287.340 237.218 C 287.376 236.873,287.376 236.310,287.340 235.965 C 287.304 235.620,287.274 235.902,287.274 236.591 M66.870 257.018 L 66.917 259.064 104.929 259.064 L 142.941 259.064 142.988 257.018 L 143.035 254.971 104.929 254.971 L 66.823 254.971 66.870 257.018 M142.857 257.059 L 142.857 258.981 104.929 258.981 L 67.001 258.981 67.001 257.059 L 67.001 255.138 104.929 255.138 L 142.857 255.138 142.857 257.059 " stroke="none" fill="#3c3444" fill-rule="evenodd"></path></g></svg>